# xmcd
#
# Track frame offsets:
#   150
#   9159
#   29001
#   46596
#   62536
#   73028
#   85970
#   100945
#   114173
#   126426
#   142205
#   157135
#   172951
#   193454
#   210112
#   226103
#   244816
#   263237
#   283077
#   299820
#   316300
#   336537
#
# Disc length: 4730 seconds
#
# Revision: 0
# Processed by: cddbd v1.5.1PL0 Copyright (c) Steve Scherf et al.
# Submitted via: Media_Universe 3.0
#
DISCID=4d127816
DTITLE=Buddy Jewell - One In A Row/Buddy Jewell
DYEAR=1900
DGENRE=Country
TTITLE0=Abilene On Her Mind
TTITLE1=The Whiskey And The Wind
TTITLE2=Help Pour Out The Rain
TTITLE3=Through The Eyes Of A Fool
TTITLE4=One In A Row
TTITLE5=Mail Myself To Mexico
TTITLE6=Thatll Never Happen To Us
TTITLE7=Any Other Woman
TTITLE8=Left At The Light
TTITLE9=Addicted To The Rain
TTITLE10=Witchita Falls Woman
TTITLE11=Happiness Is An Inside Job
TTITLE12=I Wanna Thank Everyone
TTITLE13=Help Pour Out The Rain (Lacey's Song)
TTITLE14=Sweet Southern Comfort
TTITLE15=Today I Started Loving You Again
TTITLE16=Abilene On Her Mind
TTITLE17=One In A Row
TTITLE18=O'Reilly Luck
TTITLE19=Why She Said Goodbye
TTITLE20=One Step At A Time
TTITLE21=I Can Get By/You Know How Women Are
EXTD=
EXTT0=
EXTT1=
EXTT2=
EXTT3=
EXTT4=
EXTT5=
EXTT6=
EXTT7=
EXTT8=
EXTT9=
EXTT10=
EXTT11=
EXTT12=
EXTT13=
EXTT14=
EXTT15=
EXTT16=
EXTT17=
EXTT18=
EXTT19=
EXTT20=
EXTT21=
PLAYORDER=
